# xmcd
#
# Track frame offsets:
#	150
#	4950
#	23877
#	40397
#	53845
#	75497
#	92160
#	114757
#	129985
#	146625
#	166857
#	182792
#	199067
#
# Disc length: 2893 seconds
#
# Revision: 1
# Processed by: cddbd v1.4b41PL2 Copyright (c) Steve Scherf et al.
# Submitted via: audiograbber 1.80
#
DISCID=a30b4b0d
DTITLE=Nature - For All Seasons
DYEAR=1900
DGENRE=
TTITLE0=Intro
TTITLE1=Man's World
TTITLE2=We Ain't Friends
TTITLE3=Shit Like This
TTITLE4=The Ultimate High
TTITLE5=Young Love
TTITLE6=Go Ahead
TTITLE7=Natures Shine
TTITLE8=Smoke
TTITLE9=Remember
TTITLE10=Talking That Shit
TTITLE11=I Don't Give A Fuck
TTITLE12=Don't Stop
EXTD=
EXTT0=
EXTT1=
EXTT2=
EXTT3=
EXTT4=
EXTT5=
EXTT6=
EXTT7=
EXTT8=
EXTT9=
EXTT10=
EXTT11=
EXTT12=
PLAYORDER=
